<mxfile host="app.diagrams.net" modified="2024-01-26T23:13:10.154Z" agent="Mozilla/5.0 (Windows NT 10.0; Win64; x64) AppleWebKit/537.36 (KHTML, like Gecko) Chrome/120.0.0.0 Safari/537.36" etag="FwHkrw9wfylww5xCJAGp" version="23.0.2" type="google">
  <diagram name="‫صفحه - 1‬" id="dpFCawaPlakfDS8swYZv">
    <mxGraphModel grid="1" page="1" gridSize="10" guides="1" tooltips="1" connect="1" arrows="1" fold="1" pageScale="1" pageWidth="827" pageHeight="1169" math="0" shadow="0">
      <root>
        <mxCell id="0" />
        <mxCell id="1" parent="0" />
        <mxCell id="bSuf3b8Q0Yh1m3Z_b3VZ-39" value="ارجاع نامه" style="swimlane;html=1;childLayout=stackLayout;resizeParent=1;resizeParentMax=0;horizontal=0;startSize=20;horizontalStack=0;" vertex="1" parent="1">
          <mxGeometry x="86" y="130" width="1740" height="340" as="geometry" />
        </mxCell>
        <mxCell id="bSuf3b8Q0Yh1m3Z_b3VZ-79" style="edgeStyle=orthogonalEdgeStyle;rounded=0;orthogonalLoop=1;jettySize=auto;html=1;entryX=1.003;entryY=0.512;entryDx=0;entryDy=0;entryPerimeter=0;" edge="1" parent="bSuf3b8Q0Yh1m3Z_b3VZ-39" source="bSuf3b8Q0Yh1m3Z_b3VZ-58" target="bSuf3b8Q0Yh1m3Z_b3VZ-70">
          <mxGeometry relative="1" as="geometry" />
        </mxCell>
        <mxCell id="l1yEP5FIkYj_Ro0BlmFT-5" value="نامه" style="edgeLabel;html=1;align=center;verticalAlign=middle;resizable=0;points=[];" connectable="0" vertex="1" parent="bSuf3b8Q0Yh1m3Z_b3VZ-79">
          <mxGeometry x="-0.829" y="1" relative="1" as="geometry">
            <mxPoint x="-6" y="-9" as="offset" />
          </mxGeometry>
        </mxCell>
        <mxCell id="bSuf3b8Q0Yh1m3Z_b3VZ-40" value="کاربر" style="swimlane;html=1;startSize=20;horizontal=0;fontStyle=0" vertex="1" parent="bSuf3b8Q0Yh1m3Z_b3VZ-39">
          <mxGeometry x="20" width="1720" height="170" as="geometry">
            <mxRectangle x="20" width="490" height="30" as="alternateBounds" />
          </mxGeometry>
        </mxCell>
        <mxCell id="bSuf3b8Q0Yh1m3Z_b3VZ-41" style="edgeStyle=orthogonalEdgeStyle;rounded=0;orthogonalLoop=1;jettySize=auto;html=1;" edge="1" parent="bSuf3b8Q0Yh1m3Z_b3VZ-40" source="bSuf3b8Q0Yh1m3Z_b3VZ-42" target="bSuf3b8Q0Yh1m3Z_b3VZ-43">
          <mxGeometry relative="1" as="geometry">
            <mxPoint x="110" y="42" as="targetPoint" />
          </mxGeometry>
        </mxCell>
        <mxCell id="bSuf3b8Q0Yh1m3Z_b3VZ-42" value="" style="ellipse;fillColor=strokeColor;html=1;" vertex="1" parent="bSuf3b8Q0Yh1m3Z_b3VZ-40">
          <mxGeometry x="45" y="27" width="30" height="30" as="geometry" />
        </mxCell>
        <mxCell id="bSuf3b8Q0Yh1m3Z_b3VZ-43" value="&lt;font style=&quot;font-size: 14px;&quot;&gt;درخواست ارجاع نامه&lt;/font&gt;" style="html=1;align=center;verticalAlign=top;rounded=1;absoluteArcSize=1;arcSize=13;dashed=0;whiteSpace=wrap;" vertex="1" parent="bSuf3b8Q0Yh1m3Z_b3VZ-40">
          <mxGeometry x="108" y="22" width="140" height="40" as="geometry" />
        </mxCell>
        <mxCell id="bSuf3b8Q0Yh1m3Z_b3VZ-56" style="edgeStyle=orthogonalEdgeStyle;rounded=0;orthogonalLoop=1;jettySize=auto;html=1;" edge="1" parent="bSuf3b8Q0Yh1m3Z_b3VZ-40" source="FI9GsGXPBufHwqpknpFe-3" target="bSuf3b8Q0Yh1m3Z_b3VZ-58">
          <mxGeometry relative="1" as="geometry">
            <mxPoint x="784" y="57.030303030303116" as="targetPoint" />
          </mxGeometry>
        </mxCell>
        <mxCell id="bSuf3b8Q0Yh1m3Z_b3VZ-57" value="&lt;span style=&quot;font-size: 14px;&quot;&gt;وارد کردن اطلاعات گیرنده&lt;/span&gt;" style="html=1;align=center;verticalAlign=top;rounded=1;absoluteArcSize=1;arcSize=13;dashed=0;whiteSpace=wrap;" vertex="1" parent="bSuf3b8Q0Yh1m3Z_b3VZ-40">
          <mxGeometry x="314" y="20" width="140" height="40" as="geometry" />
        </mxCell>
        <mxCell id="bSuf3b8Q0Yh1m3Z_b3VZ-58" value="تایید اطلاعات گیرنده توسط کاربر" style="shape=mxgraph.uml25.action;html=1;align=center;verticalAlign=middle;absoluteArcSize=1;arcSize=10;dashed=0;spacingRight=10;whiteSpace=wrap;" vertex="1" parent="bSuf3b8Q0Yh1m3Z_b3VZ-40">
          <mxGeometry x="794" y="18.5" width="146" height="43" as="geometry" />
        </mxCell>
        <mxCell id="L1YWVVSxvyJ55rT3kQrK-5" value="" style="rhombus;" vertex="1" parent="bSuf3b8Q0Yh1m3Z_b3VZ-40">
          <mxGeometry x="514" y="25" width="30" height="30" as="geometry" />
        </mxCell>
        <mxCell id="L1YWVVSxvyJ55rT3kQrK-6" value="" style="edgeStyle=orthogonalEdgeStyle;rounded=0;orthogonalLoop=1;jettySize=auto;html=1;" edge="1" parent="bSuf3b8Q0Yh1m3Z_b3VZ-40" source="bSuf3b8Q0Yh1m3Z_b3VZ-57" target="L1YWVVSxvyJ55rT3kQrK-5">
          <mxGeometry relative="1" as="geometry">
            <mxPoint x="640" y="169" as="targetPoint" />
            <mxPoint x="554" y="40" as="sourcePoint" />
          </mxGeometry>
        </mxCell>
        <mxCell id="L1YWVVSxvyJ55rT3kQrK-9" value="&lt;span style=&quot;font-size: 14px;&quot;&gt;افزودن پاراف&lt;/span&gt;" style="html=1;align=center;verticalAlign=top;rounded=1;absoluteArcSize=1;arcSize=13;dashed=0;whiteSpace=wrap;" vertex="1" parent="bSuf3b8Q0Yh1m3Z_b3VZ-40">
          <mxGeometry x="564" y="70" width="140" height="40" as="geometry" />
        </mxCell>
        <mxCell id="L1YWVVSxvyJ55rT3kQrK-10" style="edgeStyle=orthogonalEdgeStyle;rounded=0;orthogonalLoop=1;jettySize=auto;html=1;" edge="1" parent="bSuf3b8Q0Yh1m3Z_b3VZ-40" source="L1YWVVSxvyJ55rT3kQrK-5" target="L1YWVVSxvyJ55rT3kQrK-9">
          <mxGeometry relative="1" as="geometry">
            <Array as="points">
              <mxPoint x="529" y="90" />
            </Array>
            <mxPoint x="529" y="62" as="sourcePoint" />
            <mxPoint x="564" y="97" as="targetPoint" />
          </mxGeometry>
        </mxCell>
        <mxCell id="l1yEP5FIkYj_Ro0BlmFT-3" value="[نیاز به پاراف]" style="edgeLabel;html=1;align=center;verticalAlign=middle;resizable=0;points=[];" connectable="0" vertex="1" parent="L1YWVVSxvyJ55rT3kQrK-10">
          <mxGeometry x="-0.4883" relative="1" as="geometry">
            <mxPoint y="27" as="offset" />
          </mxGeometry>
        </mxCell>
        <mxCell id="L1YWVVSxvyJ55rT3kQrK-11" style="edgeStyle=orthogonalEdgeStyle;rounded=0;orthogonalLoop=1;jettySize=auto;html=1;" edge="1" parent="bSuf3b8Q0Yh1m3Z_b3VZ-40" source="L1YWVVSxvyJ55rT3kQrK-9" target="FI9GsGXPBufHwqpknpFe-3">
          <mxGeometry relative="1" as="geometry" />
        </mxCell>
        <mxCell id="l1yEP5FIkYj_Ro0BlmFT-4" value="[بدون نیاز به پاراف]" style="edgeLabel;html=1;align=center;verticalAlign=middle;resizable=0;points=[];" connectable="0" vertex="1" parent="bSuf3b8Q0Yh1m3Z_b3VZ-40">
          <mxGeometry x="594" y="29.894736842105203" as="geometry" />
        </mxCell>
        <mxCell id="FI9GsGXPBufHwqpknpFe-3" value="" style="rhombus;" vertex="1" parent="bSuf3b8Q0Yh1m3Z_b3VZ-40">
          <mxGeometry x="734" y="25" width="30" height="30" as="geometry" />
        </mxCell>
        <mxCell id="FI9GsGXPBufHwqpknpFe-4" value="" style="edgeStyle=orthogonalEdgeStyle;rounded=0;orthogonalLoop=1;jettySize=auto;html=1;" edge="1" parent="bSuf3b8Q0Yh1m3Z_b3VZ-40" source="L1YWVVSxvyJ55rT3kQrK-5" target="FI9GsGXPBufHwqpknpFe-3">
          <mxGeometry relative="1" as="geometry">
            <mxPoint x="900" y="170" as="targetPoint" />
            <mxPoint x="650" y="170" as="sourcePoint" />
          </mxGeometry>
        </mxCell>
        <mxCell id="bSuf3b8Q0Yh1m3Z_b3VZ-73" style="edgeStyle=orthogonalEdgeStyle;rounded=0;orthogonalLoop=1;jettySize=auto;html=1;" edge="1" parent="bSuf3b8Q0Yh1m3Z_b3VZ-39" source="bSuf3b8Q0Yh1m3Z_b3VZ-43" target="bSuf3b8Q0Yh1m3Z_b3VZ-61">
          <mxGeometry relative="1" as="geometry">
            <Array as="points" />
          </mxGeometry>
        </mxCell>
        <mxCell id="bSuf3b8Q0Yh1m3Z_b3VZ-59" value="سامانه" style="swimlane;html=1;startSize=20;horizontal=0;" vertex="1" parent="bSuf3b8Q0Yh1m3Z_b3VZ-39">
          <mxGeometry x="20" y="170" width="1720" height="170" as="geometry" />
        </mxCell>
        <mxCell id="bSuf3b8Q0Yh1m3Z_b3VZ-60" value="" style="ellipse;html=1;shape=endState;fillColor=strokeColor;" vertex="1" parent="bSuf3b8Q0Yh1m3Z_b3VZ-59">
          <mxGeometry x="1664" y="34" width="30" height="30" as="geometry" />
        </mxCell>
        <mxCell id="bSuf3b8Q0Yh1m3Z_b3VZ-61" value="&lt;font style=&quot;font-size: 14px;&quot;&gt;درخواست اطلاعات گیرنده&lt;/font&gt;" style="html=1;align=center;verticalAlign=top;rounded=1;absoluteArcSize=1;arcSize=13;dashed=0;whiteSpace=wrap;" vertex="1" parent="bSuf3b8Q0Yh1m3Z_b3VZ-59">
          <mxGeometry x="108" y="30" width="140" height="40" as="geometry" />
        </mxCell>
        <mxCell id="bSuf3b8Q0Yh1m3Z_b3VZ-62" style="edgeStyle=orthogonalEdgeStyle;rounded=0;orthogonalLoop=1;jettySize=auto;html=1;" edge="1" parent="bSuf3b8Q0Yh1m3Z_b3VZ-59" source="bSuf3b8Q0Yh1m3Z_b3VZ-70" target="bSuf3b8Q0Yh1m3Z_b3VZ-65">
          <mxGeometry relative="1" as="geometry">
            <Array as="points" />
          </mxGeometry>
        </mxCell>
        <mxCell id="bSuf3b8Q0Yh1m3Z_b3VZ-63" style="edgeStyle=orthogonalEdgeStyle;rounded=0;orthogonalLoop=1;jettySize=auto;html=1;" edge="1" parent="bSuf3b8Q0Yh1m3Z_b3VZ-59" source="bSuf3b8Q0Yh1m3Z_b3VZ-65" target="bSuf3b8Q0Yh1m3Z_b3VZ-72">
          <mxGeometry relative="1" as="geometry">
            <mxPoint x="1291" y="48.639999999999986" as="sourcePoint" />
            <mxPoint x="1414" y="49" as="targetPoint" />
          </mxGeometry>
        </mxCell>
        <mxCell id="bSuf3b8Q0Yh1m3Z_b3VZ-64" value="&lt;span style=&quot;font-size: 12px;&quot;&gt;[اطلاعات وارد شده صحیح است]&lt;/span&gt;" style="edgeLabel;html=1;align=center;verticalAlign=middle;resizable=0;points=[];" connectable="0" vertex="1" parent="bSuf3b8Q0Yh1m3Z_b3VZ-63">
          <mxGeometry x="-0.362" y="1" relative="1" as="geometry">
            <mxPoint x="18" y="-8" as="offset" />
          </mxGeometry>
        </mxCell>
        <mxCell id="bSuf3b8Q0Yh1m3Z_b3VZ-65" value="" style="rhombus;" vertex="1" parent="bSuf3b8Q0Yh1m3Z_b3VZ-59">
          <mxGeometry x="1225" y="34" width="30" height="30" as="geometry" />
        </mxCell>
        <mxCell id="EJ69mUonRjvXPn-xjHlA-2" style="edgeStyle=orthogonalEdgeStyle;rounded=0;orthogonalLoop=1;jettySize=auto;html=1;" edge="1" parent="bSuf3b8Q0Yh1m3Z_b3VZ-59" source="bSuf3b8Q0Yh1m3Z_b3VZ-67" target="EJ69mUonRjvXPn-xjHlA-3">
          <mxGeometry relative="1" as="geometry">
            <mxPoint x="1594" y="70" as="targetPoint" />
          </mxGeometry>
        </mxCell>
        <mxCell id="bSuf3b8Q0Yh1m3Z_b3VZ-67" value="&lt;font style=&quot;font-size: 14px;&quot;&gt;اعلام نامعتبر بودن اطلاعات&lt;br&gt;گیرنده&lt;br&gt;&lt;/font&gt;" style="html=1;align=center;verticalAlign=top;rounded=1;absoluteArcSize=1;arcSize=13;dashed=0;whiteSpace=wrap;" vertex="1" parent="bSuf3b8Q0Yh1m3Z_b3VZ-59">
          <mxGeometry x="1170" y="110" width="140" height="40" as="geometry" />
        </mxCell>
        <mxCell id="bSuf3b8Q0Yh1m3Z_b3VZ-68" style="edgeStyle=orthogonalEdgeStyle;rounded=0;orthogonalLoop=1;jettySize=auto;html=1;" edge="1" parent="bSuf3b8Q0Yh1m3Z_b3VZ-59" source="bSuf3b8Q0Yh1m3Z_b3VZ-65" target="bSuf3b8Q0Yh1m3Z_b3VZ-67">
          <mxGeometry relative="1" as="geometry" />
        </mxCell>
        <mxCell id="bSuf3b8Q0Yh1m3Z_b3VZ-69" value="&lt;font style=&quot;font-size: 12px;&quot;&gt;وگرنه&lt;/font&gt;" style="edgeLabel;html=1;align=center;verticalAlign=middle;resizable=0;points=[];" connectable="0" vertex="1" parent="bSuf3b8Q0Yh1m3Z_b3VZ-68">
          <mxGeometry x="-0.2205" y="-2" relative="1" as="geometry">
            <mxPoint x="-13" y="-13" as="offset" />
          </mxGeometry>
        </mxCell>
        <mxCell id="bSuf3b8Q0Yh1m3Z_b3VZ-70" value="بررسی اطلاعات" style="shape=mxgraph.uml25.action;html=1;align=center;verticalAlign=middle;absoluteArcSize=1;arcSize=10;dashed=0;spacingLeft=10;flipH=1;whiteSpace=wrap;" vertex="1" parent="bSuf3b8Q0Yh1m3Z_b3VZ-59">
          <mxGeometry x="984" y="24" width="150" height="50" as="geometry" />
        </mxCell>
        <mxCell id="bSuf3b8Q0Yh1m3Z_b3VZ-71" style="edgeStyle=orthogonalEdgeStyle;rounded=0;orthogonalLoop=1;jettySize=auto;html=1;" edge="1" parent="bSuf3b8Q0Yh1m3Z_b3VZ-59" source="EJ69mUonRjvXPn-xjHlA-3" target="bSuf3b8Q0Yh1m3Z_b3VZ-60">
          <mxGeometry relative="1" as="geometry" />
        </mxCell>
        <mxCell id="bSuf3b8Q0Yh1m3Z_b3VZ-72" value="&lt;font style=&quot;font-size: 14px;&quot;&gt;ارجاع نامه توسط سامانه به&amp;nbsp;&lt;br&gt;گیرنده&lt;br&gt;&lt;/font&gt;" style="html=1;align=center;verticalAlign=top;rounded=1;absoluteArcSize=1;arcSize=13;dashed=0;whiteSpace=wrap;" vertex="1" parent="bSuf3b8Q0Yh1m3Z_b3VZ-59">
          <mxGeometry x="1396" y="29" width="140" height="40" as="geometry" />
        </mxCell>
        <mxCell id="EJ69mUonRjvXPn-xjHlA-3" value="" style="rhombus;" vertex="1" parent="bSuf3b8Q0Yh1m3Z_b3VZ-59">
          <mxGeometry x="1578" y="34" width="30" height="30" as="geometry" />
        </mxCell>
        <mxCell id="EJ69mUonRjvXPn-xjHlA-4" value="" style="edgeStyle=orthogonalEdgeStyle;rounded=0;orthogonalLoop=1;jettySize=auto;html=1;" edge="1" parent="bSuf3b8Q0Yh1m3Z_b3VZ-59" source="bSuf3b8Q0Yh1m3Z_b3VZ-72" target="EJ69mUonRjvXPn-xjHlA-3">
          <mxGeometry relative="1" as="geometry">
            <mxPoint x="1642" y="339" as="sourcePoint" />
            <mxPoint x="1790" y="339" as="targetPoint" />
          </mxGeometry>
        </mxCell>
        <mxCell id="L1YWVVSxvyJ55rT3kQrK-3" style="edgeStyle=orthogonalEdgeStyle;rounded=0;orthogonalLoop=1;jettySize=auto;html=1;entryX=0;entryY=0.5;entryDx=0;entryDy=0;" edge="1" parent="bSuf3b8Q0Yh1m3Z_b3VZ-39" source="bSuf3b8Q0Yh1m3Z_b3VZ-61" target="bSuf3b8Q0Yh1m3Z_b3VZ-57">
          <mxGeometry relative="1" as="geometry">
            <mxPoint x="434" y="80" as="targetPoint" />
          </mxGeometry>
        </mxCell>
      </root>
    </mxGraphModel>
  </diagram>
</mxfile>
